<svg xmlns="http://www.w3.org/2000/svg" id="Certificate" version="1.1" viewBox="0 0 48 48">
  <defs id="defs6966">
    <pattern id="EMFhbasepattern" width="6" height="6" x="0" y="0" patternUnits="userSpaceOnUse"></pattern>
  </defs>
  <g id="layer1" transform="translate(0 -1004.362)" fill="#000000" class="color000000 svgShape">
    <g id="g24712" transform="translate(-2545.115 -76.808)" fill="#000000" class="color000000 svgShape">
      <path id="path24516" d="m 2549.7398,1081.9201 c 12.9166,0 25.8333,0 38.75,0 l 0,46.5001 -38.75,0 z" fill="#efeae1" fill-opacity="1" stroke="#3d3c3b" stroke-width="1.5" stroke-linecap="butt" stroke-linejoin="miter" stroke-miterlimit="4" stroke-dasharray="none" stroke-opacity="1" class="colorefeae1 svgShape colorStroke3b3c3d svgStroke"></path>
      <g id="g24706" fill="#000000" class="color000000 svgShape">
        <path id="path22686-2" d="m 2568.5513,1084.0484 c -2.9343,0 -5.3185,2.3841 -5.3185,5.3185 0,1.3531 0.5109,2.5851 1.345,3.5243 a 0.25776444,0.24895052 0 0 0 -0.01,0.017 l -2.1319,5.6318 a 0.25776444,0.24895052 0 0 0 0.3082,0.3649 0.25787624,0.2490585 0 0 1 6e-4,0 0.25787624,0.2490585 0 0 0 0.04,-0.018 l 2.3437,-1.0554 1.1015,2.2829 a 0.25776444,0.24895052 0 0 0 0.4907,-0.058 l 1.8219,-4.835 1.8213,4.835 a 0.25776444,0.24895052 0 0 0 0.4907,0.058 l 1.1022,-2.2829 2.3635,1.0647 a 0.25788154,0.24906362 0 0 0 0.019,0.01 0.25776444,0.24895052 0 0 0 0.3153,-0.3608 l -2.1094,-5.6727 a 0.25776444,0.24895052 0 0 0 0,-0.01 c 0.8182,-0.9355 1.3185,-2.156 1.3185,-3.4947 0,-2.9343 -2.3841,-5.3185 -5.3185,-5.3185 z" style="line-height:normal;text-indent:0;text-align:start;text-decoration-line:none;text-decoration-style:solid;text-decoration-color:#000;text-transform:none;block-progression:tb;white-space:normal;isolation:auto;mix-blend-mode:normal;solid-color:#000;solid-opacity:1" color="#000" font-style="normal" font-variant="normal" font-weight="400" font-stretch="normal" font-size="medium" font-family="sans-serif" text-decoration="none" letter-spacing="normal" word-spacing="normal" direction="ltr" writing-mode="lr-tb" baseline-shift="baseline" text-anchor="start" clip-rule="nonzero" display="inline" overflow="visible" visibility="visible" opacity="1" color-interpolation="sRGB" color-interpolation-filters="linearRGB" fill="#3d3c3b" fill-opacity="1" fill-rule="evenodd" stroke="none" stroke-width="1.5265305" stroke-linecap="round" stroke-linejoin="round" stroke-miterlimit="4" stroke-dasharray="none" stroke-dashoffset="0" stroke-opacity="1" color-rendering="auto" image-rendering="auto" shape-rendering="auto" text-rendering="auto" enable-background="accumulate" class="color3b3c3d svgShape"></path>
        <path id="path22684-6" d="m 2568.5511,1084.6423 c 2.599,0 4.7007,2.1017 4.7007,4.7007 0,2.599 -2.1017,4.7006 -4.7007,4.7006 -2.599,0 -4.7006,-2.1016 -4.7006,-4.7006 0,-2.599 2.1016,-4.7007 4.7006,-4.7007 z" style="line-height:normal;text-indent:0;text-align:start;text-decoration-line:none;text-decoration-style:solid;text-decoration-color:#000;text-transform:none;block-progression:tb;white-space:normal;isolation:auto;mix-blend-mode:normal;solid-color:#000;solid-opacity:1" color="#000" font-style="normal" font-variant="normal" font-weight="400" font-stretch="normal" font-size="medium" font-family="sans-serif" text-decoration="none" letter-spacing="normal" word-spacing="normal" direction="ltr" writing-mode="lr-tb" baseline-shift="baseline" text-anchor="start" clip-rule="nonzero" display="inline" overflow="visible" visibility="visible" opacity="1" color-interpolation="sRGB" color-interpolation-filters="linearRGB" fill="#fcaf16" fill-opacity="1" fill-rule="evenodd" stroke="none" stroke-width="1.5265305" stroke-linecap="round" stroke-linejoin="round" stroke-miterlimit="4" stroke-dasharray="none" stroke-dashoffset="0" stroke-opacity="1" color-rendering="auto" image-rendering="auto" shape-rendering="auto" text-rendering="auto" enable-background="accumulate" class="colorfcd116 svgShape"></path>
        <path id="path22682-3" d="m 2572.0713,1093.2422 1.7888,4.8095 -1.9473,-0.877 a 0.25180348,0.24319339 0 0 0 -0.2378,-0.029 0.25180348,0.24319339 0 0 0 0,7e-4 0.25180348,0.24319339 0 0 0 -0.011,0 0.25180348,0.24319339 0 0 0 -0.01,0 0.25180348,0.24319339 0 0 0 0,8e-4 0.25180348,0.24319339 0 0 0 -0.1301,0.1508 l -0.9093,1.8828 -1.7262,-4.5801 c 1.2272,-0.078 2.3372,-0.5825 3.187,-1.368 z" style="line-height:normal;text-indent:0;text-align:start;text-decoration-line:none;text-decoration-style:solid;text-decoration-color:#000;text-transform:none;block-progression:tb;white-space:normal;isolation:auto;mix-blend-mode:normal;solid-color:#000;solid-opacity:1" color="#000" font-style="normal" font-variant="normal" font-weight="400" font-stretch="normal" font-size="medium" font-family="sans-serif" text-decoration="none" letter-spacing="normal" word-spacing="normal" direction="ltr" writing-mode="lr-tb" baseline-shift="baseline" text-anchor="start" clip-rule="nonzero" display="inline" overflow="visible" visibility="visible" opacity="1" color-interpolation="sRGB" color-interpolation-filters="linearRGB" fill="#efca81" fill-opacity="1" fill-rule="evenodd" stroke="none" stroke-width="1.5265305" stroke-linecap="round" stroke-linejoin="round" stroke-miterlimit="4" stroke-dasharray="none" stroke-dashoffset="0" stroke-opacity="1" color-rendering="auto" image-rendering="auto" shape-rendering="auto" text-rendering="auto" enable-background="accumulate" class="color81d4ef svgShape"></path>
        <path id="path21997-1" d="m 2565.0567,1093.266 c 0.8466,0.772 1.9464,1.2667 3.1613,1.3442 l -1.7269,4.5807 -0.9092,-1.8834 a 0.25180348,0.24319339 0 0 0 -0.1301,-0.1508 0.25180348,0.24319339 0 0 0 -0.012,-0.01 0.25180348,0.24319339 0 0 0 -0.01,-0.01 0.25180348,0.24319339 0 0 0 -0.2365,0.026 l -1.9466,0.8764 1.8106,-4.7831 z" style="line-height:normal;text-indent:0;text-align:start;text-decoration-line:none;text-decoration-style:solid;text-decoration-color:#000;text-transform:none;block-progression:tb;white-space:normal;isolation:auto;mix-blend-mode:normal;solid-color:#000;solid-opacity:1" color="#000" font-style="normal" font-variant="normal" font-weight="400" font-stretch="normal" font-size="medium" font-family="sans-serif" text-decoration="none" letter-spacing="normal" word-spacing="normal" direction="ltr" writing-mode="lr-tb" baseline-shift="baseline" text-anchor="start" clip-rule="nonzero" display="inline" overflow="visible" visibility="visible" opacity="1" color-interpolation="sRGB" color-interpolation-filters="linearRGB" fill="#c8aa6e" fill-opacity="1" fill-rule="evenodd" stroke="none" stroke-width="1.5265305" stroke-linecap="round" stroke-linejoin="round" stroke-miterlimit="4" stroke-dasharray="none" stroke-dashoffset="0" stroke-opacity="1" color-rendering="auto" image-rendering="auto" shape-rendering="auto" text-rendering="auto" enable-background="accumulate" class="colorea6153 svgShape"></path>
      </g>
      <path id="path24524" d="m 2553.6148,1103.4015 31,0" fill="none" stroke="#3d3c3b" stroke-width="1.5" stroke-linecap="butt" stroke-linejoin="miter" stroke-miterlimit="4" stroke-dasharray="none" stroke-opacity="1" class="colorStroke3b3c3d svgStroke"></path>
      <path id="path24526" d="m 2553.6148,1108.2452 31,0" fill="none" stroke="#3d3c3b" stroke-width="1.5" stroke-linecap="butt" stroke-linejoin="miter" stroke-miterlimit="4" stroke-dasharray="none" stroke-opacity="1" class="colorStroke3b3c3d svgStroke"></path>
      <path id="path24528" d="m 2553.6148,1113.089 31,0" fill="none" stroke="#3d3c3b" stroke-width="1.5" stroke-linecap="butt" stroke-linejoin="miter" stroke-miterlimit="4" stroke-dasharray="none" stroke-opacity="1" class="colorStroke3b3c3d svgStroke"></path>
      <path id="path24530" d="m 2553.6148,1117.9327 31,0" fill="none" stroke="#3d3c3b" stroke-width="1.5" stroke-linecap="butt" stroke-linejoin="miter" stroke-miterlimit="4" stroke-dasharray="none" stroke-opacity="1" class="colorStroke3b3c3d svgStroke"></path>
      <path id="path24534" d="m 2561.3648,1122.7765 15.5,0" fill="none" stroke="#3d3c3b" stroke-width="1.5" stroke-linecap="butt" stroke-linejoin="miter" stroke-miterlimit="4" stroke-dasharray="none" stroke-opacity="1" class="colorStroke3b3c3d svgStroke"></path>
    </g>
  </g>
</svg>
