<svg xmlns="http://www.w3.org/2000/svg" enable-background="new 0 0 512 512" viewBox="0 0 512 512" id="Garage">
  <rect width="21.6" height="73.2" x="193" y="59" fill="#6d6d6d" class="color6d6d6d svgShape"></rect>
  <rect width="21.6" height="73.2" x="297.4" y="59" fill="#6d6d6d" class="color6d6d6d svgShape"></rect>
  <polygon fill="#f2f1f0" points="460.5 186.9 460.5 512 426.3 512 426.3 233.9 85.7 233.9 85.7 512 51.5 512 51.5 186.9" class="colorf2f0f0 svgShape"></polygon>
  <polygon points="460.5 186.9 460.5 512 426.3 512 426.3 233.9 418.6 233.9 418.6 186.9" enable-background="new" opacity=".08" fill="#000000" class="color000000 svgShape"></polygon>
  <path fill="#c8aa6e" d="M485.9,126.3V191c0,8.1-6.6,14.7-14.7,14.7H40.8c-8.1,0-14.7-6.6-14.7-14.7v-64.7c0-8.1,6.6-14.7,14.7-14.7h430.4C479.3,111.6,485.9,118.2,485.9,126.3z" class="colorf96464 svgShape"></path>
  <path d="M485.9,126.3V191c0,8.1-6.6,14.7-14.7,14.7h-25.3c8.1,0,14.7-6.6,14.7-14.7v-64.7c0-8.1-6.6-14.7-14.7-14.7h25.3C479.3,111.6,485.9,118.2,485.9,126.3z" enable-background="new" opacity=".08" fill="#000000" class="color000000 svgShape"></path>
  <path fill="#e5e4e3" d="M485.9 500.8L485.9 500.8c0-6.2-5-11.2-11.2-11.2H37.4c-6.2 0-11.2 5-11.2 11.2l0 0c0 6.2 5 11.2 11.2 11.2h437.3C480.8 512 485.9 507 485.9 500.8zM441.7 240.2v41.2c0 5.4-4.4 9.8-9.8 9.8H80.1c-5.4 0-9.8-4.4-9.8-9.8v-41.2c0-5.4 4.4-9.8 9.8-9.8h351.8C437.3 230.5 441.7 234.8 441.7 240.2z" class="colore5e3e5 svgShape"></path>
  <path d="M441.7,240.2v41.2c0,5.4-4.4,9.8-9.8,9.8h-33.3c5.4,0,9.8-4.4,9.8-9.8v-41.2c0-5.4-4.4-9.8-9.8-9.8h33.3C437.3,230.4,441.7,234.8,441.7,240.2z" enable-background="new" opacity=".08" fill="#000000" class="color000000 svgShape"></path>
  <path fill="#f2f1f0" d="M126.7,97.4c-12.6,0-24.2-4.8-32.8-12.7c-3.7-3.4-2.1-9.5,2.8-10.5l33.6-7.4c4-0.9,6.9-4.4,6.9-8.6v-19c0-4.1-2.9-7.6-6.9-8.5l-33.6-7.4c-4.9-1.1-6.5-7.2-2.8-10.5C102.5,4.8,114,0,126.7,0c14.6,0,27.6,6.4,36.6,16.6c6.6,7.5,16.4,11.4,26.4,11.4h132.8c10,0,19.8-3.9,26.4-11.4C357.7,6.4,370.8,0,385.4,0c12.6,0,24.2,4.8,32.8,12.7c3.7,3.4,2.1,9.5-2.8,10.5l-33.7,7.4c-4,0.9-6.9,4.4-6.9,8.5v19.1c0,4.1,2.9,7.6,6.9,8.5l33.6,7.4c4.9,1.1,6.5,7.2,2.8,10.5c-8.6,7.9-20.1,12.7-32.8,12.7c-14.6,0-27.6-6.4-36.5-16.6c-6.6-7.5-16.4-11.4-26.4-11.4H189.6c-10,0-19.8,3.9-26.4,11.4C154.3,90.9,141.2,97.4,126.7,97.4z" class="colorf2f0f0 svgShape"></path>
  <path fill="#e5e4e3" d="M307.3,48.7L307.3,48.7c0,5.3-4.3,9.5-9.5,9.5h-83.5c-5.3,0-9.5-4.3-9.5-9.5l0,0c0-5.3,4.3-9.5,9.5-9.5h83.5C303,39.1,307.3,43.4,307.3,48.7z" class="colore5e3e5 svgShape"></path>
  <path fill="#ffffff" d="M58.6,144.3v24.1c0,4.5-3.7,8.2-8.2,8.2l0,0c-4.5,0-8.2-3.7-8.2-8.2v-24.1c0-4.5,3.7-8.2,8.2-8.2l0,0C54.9,136.1,58.6,139.8,58.6,144.3z" enable-background="new" opacity=".4" class="colorffffff svgShape"></path>
  <g fill="#000000" class="color000000 svgShape">
    <path fill="#6d6d6d" d="M191.6 459.1v24.6c0 3.6-2.9 6.4-6.4 6.4h-25.4c-3.6 0-6.4-2.9-6.4-6.4v-24.6H191.6zM358.7 459.1v24.6c0 3.6-2.9 6.4-6.4 6.4h-25.4c-3.6 0-6.4-2.9-6.4-6.4v-24.6H358.7zM371.5 386.5c0 5.6-7.5 10.1-16.8 10.1s-16.9-4.5-16.9-10.1c0-5.5 7.6-10 16.9-10C363.9 376.5 371.5 381 371.5 386.5zM174.2 386.5c0 5.6-7.5 10.1-16.8 10.1-9.3 0-16.9-4.5-16.9-10.1 0-5.5 7.6-10 16.9-10C166.7 376.5 174.2 381 174.2 386.5z" class="color6d6d6d svgShape"></path>
    <path fill="#ffb829" d="M376.5 456.8c0 7.3-5.9 13.2-13.2 13.2H148.7c-7.3 0-13.2-5.9-13.2-13.2.6-3.6-3.7-27.6 16.1-48.7l10.8-11.4h187.1l10.8 11.4C380.2 429 376 453.1 376.5 456.8zM349.6 396.6H162.4l21.2-55.6c3.5-9.2 12.3-15.2 22-15.2h100.7c9.8 0 18.6 6 22 15.2L349.6 396.6z" class="colorffce29 svgShape"></path>
    <path d="M376.5,456.8c0,7.3-5.9,13.2-13.2,13.2h-14.7c7.3,0,13.2-5.9,13.2-13.2c-0.6-3.6,3.6-27.8-16.1-48.7l-10.8-11.4L313.7,341c-3.5-9.2-12.3-15.2-22-15.2h14.7c9.8,0,18.6,6,22,15.2l21.2,55.6l10.8,11.4C380.2,429,376,453.1,376.5,456.8z" opacity=".08" fill="#000000" class="color000000 svgShape"></path>
    <path fill="#f2c366" d="M176.1,387.2l16.3-42.8c2.1-5.5,7.4-9.1,13.2-9.1h100.7c5.8,0,11.2,3.7,13.2,9.1l16.3,42.8H176.1z" class="color66d5f2 svgShape"></path>
    <path fill="#f2f1f0" d="M191.1 440.1c0 8.8-7.1 16-16 16s-16-7.1-16-16c0-8.8 7.1-16 16-16C184 424.1 191.1 431.2 191.1 440.1zM352.8 440.1c0 8.8-7.1 16-16 16-8.8 0-16-7.1-16-16 0-8.8 7.1-16 16-16C345.7 424.1 352.8 431.2 352.8 440.1z" class="colorf2f0f0 svgShape"></path>
    <g fill="#000000" class="color000000 svgShape">
      <path fill="#6d6d6d" d="M302.5,444.8h-93c-2.6,0-4.7-2.1-4.7-4.7c0-2.6,2.1-4.7,4.7-4.7h93c2.6,0,4.7,2.1,4.7,4.7C307.2,442.7,305.1,444.8,302.5,444.8z" class="color6d6d6d svgShape"></path>
    </g>
  </g>
</svg>
