<svg width="72" height="26" viewBox="0 0 72 26" fill="none" xmlns="http://www.w3.org/2000/svg">
<path fill-rule="evenodd" clip-rule="evenodd" d="M26.7682 12.6685C27.3396 12.6685 30.1963 13.8976 30.2915 19.2864C30.3868 24.6753 27.6252 26.0461 26.7682 25.9988C25.0542 25.9043 23.3401 23.5408 23.2449 19.2864C23.1497 15.0321 25.2446 12.6685 26.7682 12.6685ZM24.7685 23.4462C25.0237 24.108 25.854 25.3749 27.1491 25.148C26.8388 24.8457 26.5814 24.4942 26.3873 24.108C26.3549 24.0248 26.3321 24.0683 26.294 24.1439C26.2559 24.2196 26.1683 24.3916 26.0064 24.3916C25.7779 24.3916 25.0865 23.762 24.7685 23.4462ZM29.5297 17.8683V20.3264C29.5032 20.4067 29.4524 20.477 29.3843 20.5278C29.3162 20.5785 29.234 20.6072 29.1488 20.61C28.8632 20.61 27.7205 20.0427 27.8157 19.0028C27.9014 18.0687 28.8327 17.6679 29.1603 17.5279L29.2441 17.4901C29.3964 17.4145 29.4993 17.7113 29.5297 17.8683ZM27.2443 20.1373C27.2443 19.8537 25.7207 19.2864 25.6255 19.57C25.5303 19.8537 25.816 21.9336 26.0064 21.9336C26.0807 21.9336 26.1683 21.7445 26.2902 21.4968C26.4863 21.0865 26.7758 20.4871 27.2443 20.1373ZM28.2918 21.2718C28.5775 21.4609 28.7679 22.9735 28.6727 23.4462C28.5775 23.9189 28.1014 24.5807 27.9109 24.5807C27.7205 24.5807 26.1969 23.0681 26.2921 22.7844C26.3873 22.5008 27.9109 21.4609 28.2918 21.2718ZM27.1777 17.7737L26.374 16.3783C26.3583 16.3484 26.3342 16.3236 26.3047 16.3069C26.2752 16.2902 26.2415 16.2823 26.2075 16.2841C26.1736 16.2859 26.1409 16.2973 26.1134 16.317C26.0858 16.3368 26.0645 16.3639 26.0521 16.3953C25.7974 17.0069 25.6505 17.6573 25.6179 18.3183C25.6191 18.3502 25.6284 18.3812 25.6449 18.4085C25.6614 18.4358 25.6846 18.4586 25.7124 18.4746C25.7401 18.4906 25.7715 18.4995 25.8036 18.5002C25.8357 18.501 25.8675 18.4937 25.8959 18.479C26.249 18.2989 26.6251 18.1672 27.0139 18.0876C27.0481 18.0823 27.0806 18.069 27.1088 18.0489C27.1369 18.0288 27.1598 18.0024 27.1758 17.9718C27.1917 17.9413 27.2002 17.9074 27.2005 17.873C27.2009 17.8386 27.193 17.8046 27.1777 17.7737ZM28.0061 14.0866C27.7205 13.7085 26.3873 14.9375 26.3873 15.3157C26.81 15.6083 27.2069 15.9359 27.5738 16.2951C27.9547 16.6506 28.2575 16.9248 28.2918 16.8283C28.8632 15.2211 28.2918 14.4648 28.0061 14.0866ZM26.8634 13.5194C26.4858 13.6032 26.1299 13.7642 25.8184 13.992C25.5069 14.2199 25.2466 14.5097 25.0542 14.843C24.6748 15.5183 24.417 16.2541 24.2924 17.0174C24.4523 16.7659 24.7685 16.3367 24.7685 16.6393C24.7685 16.6827 24.7685 16.7716 24.7533 16.8964C24.6847 17.8532 24.4581 20.9673 25.7207 22.9735C25.0865 20.8936 24.4257 16.0909 26.8634 13.5194Z" fill="#C8B382"/>
<path fill-rule="evenodd" clip-rule="evenodd" d="M4.1047 12.8576C4.4856 12.8576 6.42057 13.803 6.48341 17.9269C6.54626 22.0508 4.68366 23.104 4.1047 23.0681C2.94867 22.9943 1.79073 21.1772 1.72598 17.9269C1.66123 14.6766 3.07627 12.8576 4.1047 12.8576ZM2.75631 21.1129C2.92772 21.6197 3.48764 22.5897 4.3618 22.4157C4.14943 22.1788 3.9759 21.9102 3.84759 21.6197C3.82664 21.5554 3.8114 21.5894 3.78474 21.648C3.75808 21.7067 3.69904 21.8371 3.59429 21.8371C3.4286 21.8371 2.96962 21.3531 2.75631 21.1129ZM5.9692 16.8397V18.7192C5.95519 18.7778 5.92307 18.8307 5.87731 18.8704C5.83155 18.91 5.77445 18.9345 5.714 18.9404C5.44555 18.8672 5.21023 18.7054 5.04682 18.4816C4.88342 18.2579 4.80167 17.9855 4.81507 17.7095C4.87221 16.9928 5.50069 16.6865 5.72161 16.575L5.77875 16.5466C5.87969 16.4918 5.94825 16.7187 5.9692 16.8397ZM4.42656 18.5773C4.42656 18.3599 3.39813 17.9269 3.33338 18.1444C3.26862 18.3618 3.46288 19.9539 3.59048 19.9539C3.64 19.9539 3.69904 19.8139 3.78093 19.6192C3.91615 19.3053 4.11041 18.8458 4.42656 18.5773ZM5.13503 19.4471C5.32548 19.5908 5.45499 20.7499 5.39214 21.1129C5.32929 21.476 5.01124 21.9808 4.87792 21.9808C4.74461 21.9808 3.71999 20.8218 3.78474 20.6043C3.84949 20.3869 4.87792 19.5908 5.14265 19.4471H5.13503ZM4.35228 16.7111L3.90092 15.8224C3.88718 15.7902 3.86378 15.763 3.83391 15.7445C3.80404 15.7259 3.76915 15.717 3.73398 15.7189C3.6988 15.7207 3.66506 15.7333 3.63734 15.7549C3.60963 15.7764 3.58927 15.806 3.57906 15.8394C3.44171 16.2435 3.35847 16.6637 3.33147 17.0893C3.33148 17.1226 3.34038 17.1554 3.35728 17.1843C3.37417 17.2131 3.39846 17.237 3.42767 17.2535C3.45688 17.2701 3.48997 17.2786 3.52358 17.2783C3.5572 17.278 3.59014 17.2689 3.61905 17.2519C3.80054 17.1561 3.99216 17.0807 4.1904 17.0269C4.22324 17.0188 4.25395 17.0038 4.28044 16.9828C4.30694 16.9619 4.32859 16.9356 4.34394 16.9057C4.35929 16.8757 4.36798 16.8429 4.36942 16.8093C4.37086 16.7757 4.36502 16.7422 4.35228 16.7111ZM4.94077 13.9429C4.75032 13.6536 3.84759 14.5953 3.84759 14.8883C4.13597 15.1174 4.4042 15.3705 4.64938 15.6447C4.9103 15.917 5.11027 16.1268 5.13503 16.0531C5.52355 14.8127 5.14265 14.2341 4.94077 13.9429ZM4.16945 13.5099C3.90439 13.5815 3.65805 13.7091 3.44733 13.884C3.23661 14.059 3.0665 14.2771 2.94867 14.5234C2.68999 15.0483 2.51645 15.6105 2.43445 16.1892C2.54111 16.0002 2.75631 15.6674 2.75631 15.8981C2.75631 15.9321 2.75631 16.0002 2.74489 16.0871C2.69727 16.8189 2.54491 19.2051 3.39813 20.7405C2.96962 19.1578 2.52396 15.4783 4.16945 13.5099Z" fill="#C8B382"/>
<path fill-rule="evenodd" clip-rule="evenodd" d="M70.4764 18.4355C70.5526 16.6203 69.8746 13.7709 69.5242 12.574C69.1433 13.1412 68.2862 14.2379 67.9053 14.0866C67.6063 13.9675 67.4559 13.5837 67.1969 12.9143C67.0445 12.5229 66.854 12.0313 66.5722 11.4395C65.9627 10.1537 64.7324 9.13835 64.1916 8.79233C65.4295 10.7777 66.0961 12.7631 65.7152 13.7085C65.4104 14.4648 64.382 14.6539 63.9059 14.6539H48.7651C48.5937 14.6539 48.27 14.4251 47.9119 14.1717C47.472 13.8635 46.9863 13.5194 46.6702 13.5194C46.2005 13.5496 45.7327 13.6033 45.2685 13.6801C44.5976 13.7894 43.9211 13.862 43.2421 13.8976C41.9408 13.9303 40.6459 13.7053 39.4331 13.2358C37.6238 12.574 34.1957 9.92683 34.1957 9.45412C34.1957 9.07596 35.7193 8.66565 36.4811 8.50871C34.9575 7.97928 31.1486 8.036 29.4345 8.13054C28.8251 7.67675 27.4672 7.5633 26.8634 7.5633L24.4828 2.7417C25.4351 2.6793 27.8157 2.55261 29.7202 2.55261C32.1008 2.55261 36.2907 2.83624 38.7665 3.68711C40.7472 4.3678 43.2745 5.86156 44.2896 6.52334C43.3754 6.67461 38.5761 7.09059 36.2907 7.27967H47.3368C44.6705 4.91614 39.2427 2.83624 36.7668 2.26899C34.291 1.70174 27.53 1.51266 24.4828 1.70174C21.4356 1.89082 17.2457 2.7417 14.7699 4.06527C12.7892 5.12413 10.2638 6.96391 9.24684 7.75238C9.72296 7.78452 10.8085 7.94146 11.3418 8.31963C11.719 8.62677 12.0556 8.98 12.3435 9.37093C12.7647 9.90488 13.2256 10.4067 13.7224 10.8722C14.6366 11.7042 16.263 12.3528 16.96 12.574C15.9791 12.682 14.9891 12.682 14.0081 12.574C12.7702 12.3849 10.0086 10.4941 8.96116 9.6432C7.91369 8.79233 4.8665 8.036 3.15245 8.98142C1.78121 9.73775 1.6936 11.691 1.8193 12.574C1.78883 11.7855 2.97533 9.73775 4.58082 10.0214C7.81846 10.5886 8.19936 18.0574 8.19936 22.3117L22.1974 23.8244V22.1226L9.72296 20.9881C9.75534 19.9161 9.70392 17.2443 9.24684 15.1266C8.78976 13.0089 7.62802 10.4941 5.81874 9.45412C10.161 10.2861 11.7551 16.3556 12.1036 19.2864L22.007 20.3264C21.9235 17.7091 22.2447 15.0946 22.9592 12.574C21.2071 13.6328 20.3253 16.2289 20.1025 17.3956C20.2929 12.0067 22.7821 8.64296 26.8634 8.98142C31.6247 9.37471 31.8151 15.1644 31.977 19.5833C32.0094 20.4701 32.038 21.3039 32.1008 22.0262H44.1944C44.5753 22.0262 47.7177 17.804 49.2413 15.6919C54.2882 15.6598 64.5915 15.6163 65.4295 15.6919C66.477 15.7865 66.9531 16.4483 67.9053 18.4336C68.2329 19.1143 68.5243 19.8385 68.789 20.4909C69.2918 21.7388 69.6879 22.7183 70.0003 22.5935C70.3698 22.446 70.3964 21.3909 70.4326 19.8688C70.444 19.4282 70.4555 18.9461 70.4764 18.4355ZM25.0542 7.94146C25.2446 7.65784 21.7213 3.11986 21.3404 3.02532C19.7461 3.16922 18.1776 3.51882 16.6744 4.06527C14.9756 4.72706 13.8481 6.01282 13.2958 6.64436C13.1956 6.77193 13.0834 6.8897 12.9606 6.99605C12.7321 7.14732 12.1036 7.12274 11.8179 7.09059C13.311 7.65784 16.7506 8.81124 18.5789 8.88687C20.8643 8.98141 24.8637 8.22509 25.0542 7.94146ZM32.6721 12.0067C33.0854 13.2358 33.9291 16.1098 34.0053 17.7737C34.0664 18.7813 34.0664 19.7915 34.0053 20.7991L42.0994 20.9881C42.5451 21.0203 43.5659 20.9125 44.0991 20.2318C44.6324 19.5511 45.7179 18.1841 46.1941 17.5847C45.3694 18.3731 43.5659 19.9671 42.9564 20.0427C42.347 20.1184 38.7037 19.7591 36.9573 19.57L36.2907 16.1665C37.879 16.1987 41.3757 16.2233 42.6708 16.072C41.2748 15.9775 37.4905 15.448 36.1955 14.843C35.1937 14.3703 34.1462 13.3851 33.3292 12.6118C33.0873 12.3849 32.8664 12.1769 32.6721 12.0067Z" fill="white"/>
<path d="M71.3334 23.8244L72 24.5807H70.4764L68.8576 23.3517L46.3845 23.5408L45.5275 24.4862H32.0056L31.1485 23.8244L43.7182 23.7298L44.5753 22.879H68.9528L69.9051 23.8244H71.3334Z" fill="#C8B382"/>
<path d="M62.7632 9.26504C62.0014 8.43308 58.6381 8.60325 57.0497 8.79233C60.1731 9.24613 62.3518 11.5662 63.0489 12.6685C61.0491 11.534 56.4784 9.6432 53.2407 9.07596C50.0031 8.50871 42.6079 8.25723 38.7665 8.22509C43.7182 9.81338 47.6224 12.3528 48.9556 13.4249H64.4772C64.4772 11.4395 63.7154 10.305 62.7632 9.26504Z" fill="#C8B382"/>
<path d="M66.3818 6.71243C69.429 8.14945 70.6365 10.651 70.8574 11.7231C67.8102 6.71243 63.3346 6.71243 61.3349 6.71243C59.3352 6.71243 51.5267 7.46876 49.2413 6.71243C46.9559 5.9561 41.909 3.2144 39.4332 2.07991C36.9573 0.945412 31.4343 0.945412 27.4349 0.945412C23.4354 0.945412 17.8172 1.79628 15.8174 2.55261C13.8177 3.30894 10.1992 5.9561 9.43737 6.4288C8.67557 6.90151 4.9618 7.65784 3.34298 7.5633C1.72415 7.46876 1.43848 8.50871 0.867131 9.73775C0.410052 10.721 0.170085 12.4794 0.105332 13.2358C-0.370792 10.3995 0.867131 7.75238 1.81938 6.99605C2.77163 6.23972 7.05674 6.4288 9.05647 5.48339C11.0562 4.53798 13.7225 2.36353 16.1983 1.32358C18.6742 0.283624 23.8163 0 27.4349 0C31.0534 0 34.6719 0 38.3857 0.945412C42.0995 1.89082 46.7655 5.19977 49.2413 5.86156C51.7172 6.52334 55.7166 6.14518 56.8593 6.05064C58.002 5.9561 62.5728 4.91614 66.3818 6.71243Z" fill="#C8B382"/>
</svg>
