<svg xmlns="http://www.w3.org/2000/svg" xml:space="preserve" viewBox="0 0 24 24" id="mechanism">
  <path fill="#423c30" d="M18.5 7h1c.827 0 1.5-.673 1.5-1.5v-4c0-.827-.673-1.5-1.5-1.5h-1c-.827 0-1.5.673-1.5 1.5v1.043l-3.641.331C13.12 2.36 12.603 2 12 2s-1.12.36-1.359.874L7 2.544V1.5C7 .673 6.327 0 5.5 0h-1C3.673 0 3 .673 3 1.5v4C3 6.327 3.673 7 4.5 7h1C6.327 7 7 6.327 7 5.5V4.457l3.641-.331a1.5 1.5 0 0 0 .366.49l.364 5.41A.493.493 0 0 0 11 10.5v3c0 .222.147.404.347.47l-.34 4.414A1.49 1.49 0 0 0 10.5 19.5v.362L7 19.543V18.5c0-.827-.673-1.5-1.5-1.5h-1c-.827 0-1.5.673-1.5 1.5v4c0 .827.673 1.5 1.5 1.5h1c.827 0 1.5-.673 1.5-1.5v-1.043l3.5-.319v.362c0 .827.673 1.5 1.5 1.5s1.5-.673 1.5-1.5v-.362l3.5.319V22.5c0 .827.673 1.5 1.5 1.5h1c.827 0 1.5-.673 1.5-1.5v-4c0-.827-.673-1.5-1.5-1.5h-1c-.827 0-1.5.673-1.5 1.5v1.043l-3.5.319V19.5a1.49 1.49 0 0 0-.508-1.116l-.343-4.414A.494.494 0 0 0 13 13.5v-3a.493.493 0 0 0-.367-.473l.36-5.412a1.5 1.5 0 0 0 .366-.49L17 4.458V5.5c0 .827.673 1.5 1.5 1.5z" class="color303c42 svgShape"></path>
  <path fill="#665c49" d="M18 1.5a.5.5 0 0 1 .5-.5h1a.5.5 0 0 1 .5.5v4a.5.5 0 0 1-.5.5h-1a.5.5 0 0 1-.5-.5v-4z" class="color495966 svgShape"></path>
  <circle cx="12" cy="3.5" r=".5" fill="#c8aa6e" class="color818181 svgShape"></circle>
  <path fill="#665c49" d="M6 5.5a.5.5 0 0 1-.5.5h-1a.5.5 0 0 1-.5-.5v-4a.5.5 0 0 1 .5-.5h1a.5.5 0 0 1 .5.5v4z" class="color495966 svgShape"></path>
  <path fill="#ffffff" d="M4.5 5.5v-4c0-.276.112-.5.25-.5H4.5a.5.5 0 0 0-.5.5v4a.5.5 0 0 0 .5.5h.25c-.138 0-.25-.224-.25-.5z" opacity=".2" class="colorffffff svgShape"></path>
  <path fill="#010101" d="M5.5 1h-.25c.138 0 .25.224.25.5v4c0 .276-.112.5-.25.5h.25a.5.5 0 0 0 .5-.5v-4a.5.5 0 0 0-.5-.5z" opacity=".1" class="color010101 svgShape"></path>
  <path fill="#ffffff" d="M18.5 5.5v-4c0-.276.112-.5.25-.5h-.25a.5.5 0 0 0-.5.5v4a.5.5 0 0 0 .5.5h.25c-.138 0-.25-.224-.25-.5z" opacity=".2" class="colorffffff svgShape"></path>
  <path fill="#010101" d="M19.5 1h-.25c.138 0 .25.224.25.5v4c0 .276-.112.5-.25.5h.25a.5.5 0 0 0 .5-.5v-4a.5.5 0 0 0-.5-.5z" opacity=".1" class="color010101 svgShape"></path>
  <path fill="#665c49" d="M6 22.5a.5.5 0 0 1-.5.5h-1a.5.5 0 0 1-.5-.5v-4a.5.5 0 0 1 .5-.5h1a.5.5 0 0 1 .5.5v4z" class="color495966 svgShape"></path>
  <path fill="#c8aa6e" d="M12.5 21.5a.5.5 0 0 1-1 0v-2a.5.5 0 0 1 1 0v2z" class="color818181 svgShape"></path>
  <path fill="#665c49" d="M18 18.5a.5.5 0 0 1 .5-.5h1a.5.5 0 0 1 .5.5v4a.5.5 0 0 1-.5.5h-1a.5.5 0 0 1-.5-.5v-4z" class="color495966 svgShape"></path>
  <path fill="#ffffff" d="M4.5 22.5v-4c0-.276.112-.5.25-.5H4.5a.5.5 0 0 0-.5.5v4a.5.5 0 0 0 .5.5h.25c-.138 0-.25-.224-.25-.5z" opacity=".2" class="colorffffff svgShape"></path>
  <path fill="#010101" d="M5.5 18h-.25c.138 0 .25.224.25.5v4c0 .276-.112.5-.25.5h.25a.5.5 0 0 0 .5-.5v-4a.5.5 0 0 0-.5-.5z" opacity=".1" class="color010101 svgShape"></path>
  <path fill="#ffffff" d="M18.5 22.5v-4c0-.276.112-.5.25-.5h-.25a.5.5 0 0 0-.5.5v4a.5.5 0 0 0 .5.5h.25c-.138 0-.25-.224-.25-.5z" opacity=".2" class="colorffffff svgShape"></path>
  <path fill="#010101" d="M19.5 18h-.25c.138 0 .25.224.25.5v4c0 .276-.112.5-.25.5h.25a.5.5 0 0 0 .5-.5v-4a.5.5 0 0 0-.5-.5z" opacity=".1" class="color010101 svgShape"></path>
  <linearGradient id="a" x1=".458" x2="23.542" y1="6.618" y2="17.382" gradientUnits="userSpaceOnUse">
    <stop offset="0" stop-color="#ffffff" stop-opacity=".2" class="stopColorffffff svgShape"></stop>
    <stop offset="1" stop-color="#ffffff" stop-opacity="0" class="stopColorffffff svgShape"></stop>
  </linearGradient>
  <path fill="url(#a)" d="M18.5 7h1c.827 0 1.5-.673 1.5-1.5v-4c0-.827-.673-1.5-1.5-1.5h-1c-.827 0-1.5.673-1.5 1.5v1.043l-3.641.331C13.12 2.36 12.603 2 12 2s-1.12.36-1.359.874L7 2.544V1.5C7 .673 6.327 0 5.5 0h-1C3.673 0 3 .673 3 1.5v4C3 6.327 3.673 7 4.5 7h1C6.327 7 7 6.327 7 5.5V4.457l3.641-.331a1.5 1.5 0 0 0 .366.49l.364 5.41A.493.493 0 0 0 11 10.5v3c0 .222.147.404.347.47l-.34 4.414A1.49 1.49 0 0 0 10.5 19.5v.362L7 19.543V18.5c0-.827-.673-1.5-1.5-1.5h-1c-.827 0-1.5.673-1.5 1.5v4c0 .827.673 1.5 1.5 1.5h1c.827 0 1.5-.673 1.5-1.5v-1.043l3.5-.319v.362c0 .827.673 1.5 1.5 1.5s1.5-.673 1.5-1.5v-.362l3.5.319V22.5c0 .827.673 1.5 1.5 1.5h1c.827 0 1.5-.673 1.5-1.5v-4c0-.827-.673-1.5-1.5-1.5h-1c-.827 0-1.5.673-1.5 1.5v1.043l-3.5.319V19.5a1.49 1.49 0 0 0-.508-1.116l-.343-4.414A.494.494 0 0 0 13 13.5v-3a.493.493 0 0 0-.367-.473l.36-5.412a1.5 1.5 0 0 0 .366-.49L17 4.458V5.5c0 .827.673 1.5 1.5 1.5z"></path>
</svg>
